<?xml version="1.0" encoding="utf-8"?>
<!-- Generator: Adobe Illustrator 16.0.0, SVG Export Plug-In . SVG Version: 6.00 Build 0)  -->
<!DOCTYPE svg PUBLIC "-//W3C//DTD SVG 1.1//EN" "http://www.w3.org/Graphics/SVG/1.1/DTD/svg11.dtd">
<svg version="1.1" id="Layer_1" xmlns="http://www.w3.org/2000/svg" xmlns:xlink="http://www.w3.org/1999/xlink" x="0px" y="0px"
	viewBox="23 16 302 80" enable-background="new 0 0 340.157 113.386"
	 xml:space="preserve">
<g>
	<g>
		<path fill="#231F20" d="M24.835,86.406V33.389c0-1.726,0.641-3.194,1.907-4.404c1.27-1.21,2.816-1.813,4.63-1.813h36.901v10.191
			H37.545v14.241H61.87v3.973c0,1.729-0.633,3.193-1.905,4.408c-1.27,1.205-2.816,1.809-4.631,1.809H37.545v24.612H24.835z"/>
		<path fill="#231F20" d="M235.099,66.045c-0.721,2.192-1.727,4.091-3.049,5.663c-2.496,3.201-6.121,4.952-10.859,5.284
			l-0.609-0.002c-4.736-0.33-8.363-2.081-10.857-5.282c-2.91-3.455-4.361-8.404-4.361-14.854c0-6.676,1.451-11.743,4.361-15.196
			c2.643-3.023,6.266-4.724,10.857-5.101l0.609,0.002c4.594,0.378,8.217,2.075,10.859,5.099c1.186,1.407,2.111,3.102,2.814,5.046
			h13.438c-1.17-5.444-3.373-9.843-6.629-13.162c-4.834-5.024-11.68-7.689-20.482-8.045l-0.609-0.002
			c-8.801,0.357-15.648,3.019-20.48,8.047c-5.088,5.182-7.623,12.949-7.623,23.313c0,10.133,2.477,17.789,7.439,22.971
			c4.793,5.224,11.695,7.902,20.664,8.08h0.609c8.969-0.177,15.869-2.853,20.666-8.08c3.326-3.475,5.506-8.082,6.604-13.78H235.099z
			"/>
		<path fill="#231F20" d="M280.321,56.762l24.775-23.663l-10.406-6.676l-24.338,23.254v-1.879v-20.8h-6.354
			c-1.816,0-3.359,0.604-4.629,1.813c-1.27,1.207-1.904,2.679-1.904,4.404v53.19h12.887v-22.67v-0.097l23.168,22.558
			c1.236,1.204,2.732,1.771,4.486,1.702c1.754-0.064,3.26-0.749,4.525-2.051l3.729-3.801L280.321,56.762z"/>
		<path fill="#231F20" d="M74.186,86.406v-53.19c0-1.726,0.637-3.197,1.904-4.404c1.272-1.209,2.814-1.813,4.63-1.813h7.218v48.354
			h25.527v11.053H74.186z"/>
		<g>
			<path fill="#FCDF00" d="M148.653,18.753c-20.954,0.179-37.799,17.306-37.619,38.257c0.178,20.957,17.306,37.799,38.26,37.622
				c20.957-0.177,37.797-17.308,37.621-38.26C186.739,35.419,169.61,18.577,148.653,18.753z"/>
		</g>
		<rect x="312.269" y="75.353" fill="#231F20" width="11.053" height="11.053"/>
		<g>
			<path fill="#231F20" d="M116.681,67.071c0.52,0.199,7.561-6.28,10.608-6.987c2.944-0.683,8.771,0.327,15.103,6.207l9.354-7.678
				c0,0,5.832-4.971,15.313-12.767c8.328-6.844,2.625-16.402,2.625-16.402s-20.08,16.919-20.816,17.486
				c-0.187,0.146-0.354,0.271-0.51,0.389c-3.735,2.185-7.277,1.705-9.948,0.89c-1.563-0.478-3.014-1.047-4.393-1.382
				c-4.719-1.144-9.397,0.481-10.71,5.155c-0.941,3.356,0.306,3.806-1.127,6.435C120.654,61.22,116.333,66.939,116.681,67.071z"/>
			<path fill="#231F20" d="M157.981,86.406c0,0-3.808-6.32-12.976-17.078l8.85-7.379l15.675-13.075c0,0,5.939,7.841-4.076,16.723
				l-3.515,3.135c-2.965,2.585-1.101,6.219-1.069,9.292C160.933,83.96,159.242,85.346,157.981,86.406z"/>
		</g>
	</g>
</g>
</svg>
