<?xml version="1.0" encoding="UTF-8" standalone="no"?>
<svg width="305px" height="316px" viewBox="0 0 305 316" version="1.1" xmlns="http://www.w3.org/2000/svg" xmlns:xlink="http://www.w3.org/1999/xlink">
    <!-- Generator: Sketch 41.2 (35397) - http://www.bohemiancoding.com/sketch -->
    <title>Group</title>
    <desc>Created with Sketch.</desc>
    <defs></defs>
    <g id="Page-1" stroke="none" stroke-width="1" fill="none" fill-rule="evenodd">
        <g id="Styles/Icons" transform="translate(-1526.000000, -753.000000)" fill="#201D1D">
            <g id="Group" transform="translate(1526.000000, 753.000000)">
                <path d="M0.773209655,208.728867 C3.65436828,209.830363 42.6663641,173.968097 59.5488455,170.054742 C75.8606359,166.274232 108.146234,171.864738 143.229881,204.411446 L195.057492,161.91253 C195.057492,161.91253 227.370794,134.397277 279.902073,91.2452127 C326.044937,53.3626153 294.446383,0.457608598 294.446383,0.457608598 C294.446383,0.457608598 183.189335,94.1068876 179.111388,97.2453202 C178.075279,98.0534528 177.149983,98.7453471 176.285636,99.3984953 C155.59116,111.492808 135.966037,108.835934 121.166855,104.324783 C112.506757,101.678979 104.467217,98.529476 96.8266055,96.6751993 C70.680091,90.3429825 44.7607448,99.3376086 37.4858193,125.208921 C32.2720303,143.784899 39.1812703,146.275719 31.2414621,160.82764 C22.7863697,176.342678 -1.15495034,207.998227 0.773209655,208.728867 Z" id="Shape"></path>
                <path d="M229.603692,315.751079 C229.603692,315.751079 208.504746,280.768903 157.707703,221.221711 L206.742807,180.377806 L293.593117,108.005661 C293.593117,108.005661 326.499273,151.406807 271.009266,200.570049 L251.533742,217.922759 C235.105597,232.231133 245.433443,252.345884 245.610745,269.355414 C245.959808,302.212091 236.590502,309.883815 229.603692,315.751079 Z" id="Shape"></path>
            </g>
        </g>
    </g>
</svg>