<?xml version="1.0" encoding="utf-8"?>
<!-- Generator: Adobe Illustrator 16.0.0, SVG Export Plug-In . SVG Version: 6.00 Build 0)  -->
<!DOCTYPE svg PUBLIC "-//W3C//DTD SVG 1.1//EN" "http://www.w3.org/Graphics/SVG/1.1/DTD/svg11.dtd">
<svg version="1.1" id="Layer_1" xmlns="http://www.w3.org/2000/svg" xmlns:xlink="http://www.w3.org/1999/xlink" x="0px" y="0px"
	 width="665.823px" height="103.997px" viewBox="0 0 665.823 103.997" enable-background="new 0 0 665.823 103.997"
	 xml:space="preserve">
<g>
	<path fill="#231F20" d="M24.835,81.616V28.599c0-1.726,0.641-3.194,1.907-4.404c1.27-1.21,2.816-1.813,4.63-1.813h36.901v10.191
		H37.545v14.241H61.87v3.973c0,1.729-0.633,3.193-1.905,4.408c-1.27,1.205-2.816,1.809-4.631,1.809H37.545v24.612H24.835z"/>
	<path fill="#231F20" d="M235.099,61.255c-0.721,2.192-1.727,4.091-3.049,5.663c-2.496,3.201-6.121,4.952-10.859,5.284l-0.609-0.002
		c-4.736-0.33-8.363-2.081-10.857-5.282c-2.91-3.455-4.361-8.404-4.361-14.854c0-6.676,1.451-11.743,4.361-15.196
		c2.643-3.023,6.266-4.724,10.857-5.101l0.609,0.002c4.594,0.378,8.217,2.075,10.859,5.099c1.186,1.407,2.111,3.102,2.814,5.046
		h13.438c-1.17-5.444-3.373-9.843-6.629-13.162c-4.834-5.024-11.68-7.689-20.482-8.045l-0.609-0.002
		c-8.801,0.357-15.648,3.019-20.48,8.047c-5.088,5.182-7.623,12.949-7.623,23.313c0,10.133,2.477,17.789,7.439,22.971
		c4.793,5.224,11.695,7.902,20.664,8.08h0.609c8.969-0.177,15.869-2.853,20.666-8.08c3.326-3.475,5.506-8.082,6.604-13.78H235.099z"
		/>
	<path fill="#231F20" d="M280.321,51.972l24.775-23.663l-10.406-6.676l-24.338,23.254v-1.879v-20.8h-6.354
		c-1.816,0-3.359,0.604-4.629,1.813c-1.27,1.207-1.904,2.679-1.904,4.404v53.19h12.887v-22.67v-0.097l23.168,22.558
		c1.236,1.204,2.732,1.771,4.486,1.702c1.754-0.064,3.26-0.749,4.525-2.051l3.729-3.801L280.321,51.972z"/>
	<path fill="#231F20" d="M74.186,81.616v-53.19c0-1.726,0.637-3.197,1.904-4.404c1.272-1.209,2.814-1.813,4.63-1.813h7.218v48.354
		h25.527v11.053H74.186z"/>
	<g>
		<path fill="#FCDF00" d="M148.653,13.963c-20.954,0.179-37.799,17.306-37.619,38.257c0.178,20.957,17.306,37.799,38.26,37.622
			c20.957-0.177,37.797-17.308,37.621-38.26C186.739,30.629,169.61,13.787,148.653,13.963z"/>
	</g>
	<rect x="312.269" y="70.563" fill="#231F20" width="11.053" height="11.053"/>
	<g>
		<path fill="#231F20" d="M116.681,62.281c0.52,0.199,7.561-6.28,10.608-6.987c2.944-0.683,8.771,0.327,15.103,6.207l9.354-7.678
			c0,0,5.832-4.971,15.313-12.767c8.328-6.844,2.625-16.402,2.625-16.402s-20.08,16.919-20.816,17.486
			c-0.187,0.146-0.354,0.271-0.51,0.389c-3.735,2.185-7.277,1.705-9.948,0.89c-1.563-0.478-3.014-1.047-4.393-1.382
			c-4.719-1.144-9.397,0.481-10.71,5.155c-0.941,3.356,0.306,3.806-1.127,6.435C120.654,56.43,116.333,62.149,116.681,62.281z"/>
		<path fill="#231F20" d="M157.981,81.616c0,0-3.808-6.32-12.976-17.078l8.85-7.379l15.675-13.075c0,0,5.939,7.841-4.076,16.723
			l-3.515,3.135c-2.965,2.585-1.101,6.219-1.069,9.292C160.933,79.17,159.242,80.556,157.981,81.616z"/>
	</g>
</g>
<g>
	<path d="M345.128,82.143c-9.176,0-13.764-5.036-13.764-15.108c0-5.01,1.248-8.837,3.744-11.483
		c2.496-2.646,6.073-3.968,10.731-3.968c3.41,0,6.469,0.668,9.176,2.004l-2.373,6.223c-1.266-0.51-2.443-0.927-3.533-1.252
		c-1.09-0.325-2.18-0.488-3.27-0.488c-4.184,0-6.275,2.971-6.275,8.912c0,5.766,2.092,8.648,6.275,8.648
		c1.547,0,2.979-0.207,4.298-0.62c1.318-0.413,2.637-1.059,3.955-1.938v6.882c-1.301,0.827-2.615,1.397-3.941,1.714
		C348.823,81.985,347.149,82.143,345.128,82.143z"/>
	<path d="M387.98,66.824c0,4.799-1.266,8.552-3.797,11.259c-2.531,2.707-6.056,4.061-10.573,4.061c-2.83,0-5.326-0.62-7.488-1.859
		s-3.823-3.019-4.983-5.339s-1.74-5.027-1.74-8.121c0-4.816,1.257-8.56,3.771-11.232c2.514-2.672,6.047-4.008,10.6-4.008
		c2.83,0,5.326,0.616,7.488,1.846c2.162,1.23,3.823,2.997,4.983,5.3C387.4,61.032,387.98,63.73,387.98,66.824z M367.599,66.824
		c0,2.918,0.479,5.125,1.437,6.618c0.958,1.494,2.519,2.241,4.681,2.241c2.145,0,3.687-0.742,4.628-2.228
		c0.939-1.485,1.41-3.695,1.41-6.631c0-2.917-0.475-5.106-1.424-6.565c-0.949-1.459-2.505-2.188-4.667-2.188
		c-2.145,0-3.691,0.725-4.641,2.175S367.599,63.888,367.599,66.824z"/>
	<path d="M421.397,81.616h-8.042V64.398c0-2.126-0.355-3.722-1.068-4.786c-0.711-1.063-1.832-1.595-3.361-1.595
		c-2.057,0-3.551,0.756-4.482,2.268c-0.932,1.512-1.397,3.999-1.397,7.462v13.869h-8.042V52.137h6.144l1.081,3.771h0.448
		c0.791-1.354,1.934-2.413,3.428-3.177s3.208-1.147,5.142-1.147c4.412,0,7.4,1.441,8.965,4.324h0.712
		c0.791-1.371,1.955-2.435,3.493-3.19c1.538-0.755,3.274-1.134,5.208-1.134c3.34,0,5.866,0.857,7.581,2.571
		c1.713,1.714,2.57,4.46,2.57,8.24v19.222h-8.068V64.398c0-2.126-0.355-3.722-1.068-4.786c-0.711-1.063-1.832-1.595-3.361-1.595
		c-1.969,0-3.441,0.703-4.416,2.109c-0.977,1.407-1.464,3.639-1.464,6.697V81.616z"/>
	<path d="M474.962,81.616h-8.042V64.398c0-2.126-0.355-3.722-1.068-4.786c-0.711-1.063-1.832-1.595-3.361-1.595
		c-2.057,0-3.551,0.756-4.482,2.268c-0.932,1.512-1.397,3.999-1.397,7.462v13.869h-8.042V52.137h6.144l1.081,3.771h0.448
		c0.791-1.354,1.934-2.413,3.428-3.177s3.208-1.147,5.142-1.147c4.412,0,7.4,1.441,8.965,4.324h0.712
		c0.791-1.371,1.955-2.435,3.493-3.19c1.538-0.755,3.274-1.134,5.208-1.134c3.34,0,5.866,0.857,7.581,2.571
		c1.713,1.714,2.57,4.46,2.57,8.24v19.222h-8.068V64.398c0-2.126-0.355-3.722-1.068-4.786c-0.711-1.063-1.832-1.595-3.361-1.595
		c-1.969,0-3.441,0.703-4.416,2.109c-0.977,1.407-1.464,3.639-1.464,6.697V81.616z"/>
	<path d="M522.476,81.616l-1.081-3.771h-0.422c-0.861,1.371-2.083,2.43-3.665,3.177s-3.384,1.121-5.405,1.121
		c-3.463,0-6.073-0.927-7.831-2.782c-1.758-1.854-2.637-4.522-2.637-8.002V52.137h8.042v17.218c0,2.127,0.378,3.722,1.134,4.786
		c0.756,1.064,1.96,1.595,3.612,1.595c2.25,0,3.876-0.751,4.878-2.254s1.503-3.995,1.503-7.475V52.137h8.042v29.479H522.476z"/>
	<path d="M564.833,81.616h-8.042V64.398c0-2.126-0.378-3.722-1.134-4.786c-0.756-1.063-1.96-1.595-3.612-1.595
		c-2.25,0-3.876,0.751-4.878,2.254s-1.503,3.995-1.503,7.475v13.869h-8.042V52.137h6.144l1.081,3.771h0.448
		c0.896-1.424,2.131-2.5,3.704-3.23c1.573-0.729,3.362-1.094,5.366-1.094c3.428,0,6.029,0.927,7.805,2.782
		c1.775,1.855,2.663,4.531,2.663,8.029V81.616z"/>
	<path d="M573.04,44.517c0-2.619,1.459-3.929,4.377-3.929s4.377,1.31,4.377,3.929c0,1.249-0.365,2.219-1.095,2.914
		c-0.729,0.695-1.823,1.042-3.282,1.042C574.499,48.472,573.04,47.154,573.04,44.517z M581.425,81.616h-8.042V52.137h8.042V81.616z"
		/>
	<path d="M602.93,75.736c1.406,0,3.094-0.307,5.063-0.923v5.985c-2.004,0.896-4.465,1.345-7.383,1.345
		c-3.217,0-5.56-0.813-7.026-2.439c-1.469-1.625-2.202-4.064-2.202-7.317V58.175h-3.85v-3.401l4.43-2.689l2.32-6.223h5.142v6.275
		h8.253v6.038h-8.253v14.212c0,1.143,0.32,1.987,0.963,2.531C601.026,75.463,601.875,75.736,602.93,75.736z"/>
	<path d="M610.271,52.137h8.807l5.563,16.585c0.475,1.441,0.8,3.147,0.976,5.115h0.158c0.193-1.81,0.571-3.516,1.134-5.115
		l5.458-16.585h8.622l-12.472,33.249c-1.143,3.076-2.773,5.379-4.891,6.908c-2.119,1.529-4.593,2.294-7.423,2.294
		c-1.389,0-2.751-0.149-4.087-0.448v-6.381c0.967,0.228,2.021,0.343,3.164,0.343c1.424,0,2.667-0.435,3.73-1.305
		s1.895-2.185,2.492-3.942l0.475-1.45L610.271,52.137z"/>
</g>
</svg>
