<svg xmlns="http://www.w3.org/2000/svg" width="1417.333" height="1417.333"
     viewBox="0 0 1063.000000 1063.000000">
    <path d="M819.8 150.7c-.1.5-3.4 3.4-7.3 6.6-3.8 3.3-8.1 6.8-9.5 8-1.4 1.2-5.4 4.6-9 7.7-3.6 3-6.7 5.7-7 6-.3.3-3 2.5-6 5-3 2.4-6.2 5.1-7.1 6-.9.8-2.5 2.2-3.6 3-3.7 2.9-19.8 16.5-21.4 18-.9.8-2.5 2.2-3.5 3-2.7 2.1-13.8 11.4-14.4 12-.3.3-3.2 2.7-6.5 5.4-3.3 2.8-6.7 5.7-7.6 6.5-.8.9-3.5 3.2-5.9 5.1-4.2 3.3-10.1 8.3-12.6 10.5-.6.5-3.3 2.8-6 5-2.6 2.2-6.6 5.6-8.9 7.5-2.2 1.9-6.3 5.3-9 7.5-4.2 3.5-15.7 13.2-23.5 19.9-1.4 1.2-5.4 4.6-9 7.5-3.6 3-6.7 5.7-7 6-.3.3-2.7 2.4-5.5 4.5-2.7 2.2-6.5 5.5-8.3 7.3-1.8 1.8-3.6 3.3-4 3.3-.4.1-2.9 2.1-5.7 4.4-2.7 2.4-7 6-9.5 8.1-2.5 2-6.5 5.3-8.9 7.4-2.4 2-5.9 5-7.8 6.8-1.8 1.7-3.3 2.9-3.3 2.7 0-.2-1.2.7-2.7 2-4.4 3.9-7.1 6.2-11.3 9.6-2.1 1.7-4.8 3.9-5.8 4.8-12.1 10.5-30.8 25.9-36.2 29.9-6.8 5-16.5 9.9-29 14.6-12 4.5-18.4 6.1-32 8.3-8.6 1.4-28.5 1.9-37.2.9-14.4-1.6-16.7-1.9-25.3-4-3.8-.9-7.9-1.8-8.9-2-1-.3-3.3-.9-5.1-1.5-1.8-.6-4.1-1.2-5.1-1.5-1-.2-12.2-3.8-24.7-8-22.5-7.5-40.7-12.8-40.7-11.9 0 .3-.8.1-1.7-.4-1-.6-4-1.2-6.8-1.6-2.7-.3-6.3-.9-8-1.2-6-1.1-30.2-1-38.5.2-13.5 2-15.3 2.5-27 6.6-34.7 12.3-57.9 39.6-66.3 78.3-2.6 11.7-2.9 15.3-3.2 34.5-.3 20-.6 22.3-3.6 31.3-3.2 9.4-5.1 13-22.4 41.3-1.1 1.8-7.9 12-15 22.6-43.2 63.8-45.7 67.7-44.9 68.9.3.5 0 .9-.5.9-.6 0-1.1.7-1.1 1.6 0 1.1.6 1.4 2.3.8 1.2-.3 2.3-1.1 2.5-1.5.2-.5.8-.9 1.3-.9.8 0 9.4-5.8 12.6-8.5.7-.5 3.1-2.5 5.5-4.2 5.1-3.9 20.6-15.9 22.9-17.8.9-.7 5.4-4.1 10-7.6s8.6-6.6 8.9-6.9c.3-.3 2.1-1.7 4-3s3.7-2.7 4-3c.3-.3 1.8-1.4 3.4-2.5 1.6-1.1 4.1-2.9 5.6-4 1.4-1.1 5.3-3.8 8.6-6s6.6-4.6 7.4-5.3c.8-.7 5.1-3.5 9.5-6.2s8.5-5.3 9.1-5.8c2.8-2.4 24.6-12.4 29.9-13.7 18.4-4.5 39.9-3.9 67 1.9 7.8 1.7 27.3 8.2 35.2 11.7 2.4 1 4.5 1.9 4.8 1.9.2 0 3.4 1.3 7 3 3.6 1.6 6.8 2.9 7.1 2.9.4 0 1 .3 1.3.8.3.4 2.4 1.7 4.6 2.8 4.4 2.2 18.1 9.9 20.5 11.4.8.6 5.6 3.7 10.5 6.9 5 3.2 11.3 7.5 14 9.5 2.8 2.1 5.5 4.1 6 4.5 1.6 1.2 15.9 12.5 17.2 13.7.6.5 3.1 2.7 5.5 4.7s6.1 5.3 8.2 7.2c3.4 3.2 4.1 3.5 5.5 2.3.9-.8 12-9.9 24.6-20.2 12.7-10.4 23.2-19.1 23.5-19.4.3-.3 2.1-1.8 4.2-3.3 2-1.5 4.2-3.3 5-4.1 1.2-1.1 15.6-13 18.6-15.2.7-.6 2.1-1.7 3-2.6.9-.8 5.3-4.4 9.7-8 4.4-3.5 8.2-6.6 8.5-6.9.3-.3 2.5-2.1 5-4s5.2-4.1 6-5c.8-.9 3.5-3.1 6-5s5-3.9 5.6-4.5c.6-.5 3.1-2.6 5.5-4.6 4.1-3.5 13.1-11 24.5-20.6 2.7-2.3 5.9-5 7-6 1.2-1 4.1-3.4 6.5-5.4 2.4-2 6.2-5.2 8.4-7 2.2-1.9 5.1-4.3 6.4-5.4 1.3-1.1 3.1-2.7 4-3.5.9-.8 3.9-3.3 6.6-5.5 2.8-2.2 5.5-4.4 6.1-5 .6-.5 3.2-2.8 5.9-5s8.1-6.7 12-10c3.9-3.3 9.3-7.8 12-10 2.6-2.2 5.3-4.5 5.9-5 .9-.8 10.9-9.1 20.1-16.6 1.1-1 5.4-4.6 9.6-8 4.2-3.5 9.8-8.2 12.4-10.4 2.7-2.2 5.3-4.5 5.9-5 .6-.6 3.4-2.8 6.1-4.9 2.8-2.2 6.1-5 7.5-6.3 1.4-1.2 5.5-4.6 9.1-7.5 18-14.3 51.2-42.3 57.2-48.3 5.8-5.7 14.3-15.8 21.5-25.5 4.8-6.5 16.8-29.2 17.6-33.5.2-.5 1.3-4.2 2.5-8 1.2-3.9 2.4-7.8 2.6-8.8.2-1 .6-2.6.9-3.5.3-.9.7-3.3 1-5.2.3-1.9.8-4.6 1.1-6 .6-3.1 1.9-20.8 1.8-27 0-5.4-1.2-21.9-1.8-24-.2-.8-.7-3.5-1-6-.4-2.5-1.1-6.5-1.7-9-.5-2.5-1.1-5.3-1.3-6.2-.8-3.6-4.8-17.4-5.3-18.3-.4-.6-.8-1.8-.9-2.8-.2-1-1-3.1-1.8-4.7s-1.5-3.4-1.5-4c0-.6-2.5-6.3-5.5-12.6-5-10.4-6.7-12.8-7.7-10.7zM816.4 424.4c-3.5 3-16 13.3-19.3 16.1-1.4 1.1-3.4 2.9-4.6 4-1.2 1.1-3.8 3.3-5.8 4.8-2.1 1.6-4.8 3.8-6.1 5-1.3 1.2-4.1 3.5-6.2 5.2-5.9 4.7-10.6 8.7-13.7 11.7-1.5 1.5-3 2.9-3.5 2.9-.6.1-6.8 5-10.5 8.4-.7.6-4.1 3.5-7.7 6.4-3.6 3-6.7 5.7-7 6-.3.3-3.6 3.1-7.5 6.2-3.8 3.1-8.3 6.8-9.8 8.3-1.5 1.4-3.2 2.6-3.7 2.6-.4 0-1 .4-1.2.9-.1.4-7.5 6.8-16.3 14-21.3 17.6-25.6 21.3-27.7 23.3-1 1-2 1.8-2.2 1.8-.4 0-6.6 5.2-9.8 8.2-1 1-2.1 1.8-2.4 1.8-.4 0-1.4.8-2.3 1.8-.9 1-3.6 3.3-6.1 5.2-2.4 1.9-5.6 4.6-7 5.9-1.4 1.3-4.1 3.5-6 5-1.9 1.4-3.7 2.9-4 3.2-.3.4-2.5 2.3-5 4.4-2.5 2-6.5 5.4-9 7.5-2.5 2-10.3 8.6-17.5 14.4-7.1 5.9-13.8 11.7-14.7 12.8-1 1.1-1.8 1.7-1.8 1.4 0-.3-.8.2-1.8 1.1-1.1 1-2.8 2.5-3.8 3.3-3.1 2.5-25.9 21.4-26.4 22-.3.3-3 2.5-6 5s-6 4.9-6.6 5.5c-.6.5-2.8 2.3-4.8 4-2.1 1.6-4.7 3.9-6 5-1.2 1.1-4.2 3.6-6.6 5.5-2.4 1.9-5.8 4.7-7.5 6.1-1.6 1.4-4 3.4-5.3 4.5-1.3 1-3.4 2.8-4.6 3.9-1.2 1.1-4.2 3.6-6.6 5.5-2.4 1.9-6 4.9-7.9 6.7-2 1.7-4.7 4-6 5-2 1.6-2.1 2.1-1 3.4.8.8 4.8 5.4 8.9 10.4 4.1 4.9 8 9.5 8.6 10.1.5.6 2.6 3.1 4.5 5.4 1.8 2.3 7.2 8.8 11.9 14.5 12.5 15.1 13.5 16.3 30 37 8.3 10.4 15.6 19.7 16.3 20.5.7.8 3.4 4.4 6.2 8 2.7 3.6 5.2 6.7 5.5 7 .3.3 2.3 3 4.5 6s4.2 5.7 4.6 6c.3.3 5.4 7 11.3 15s11.3 15.2 11.9 16c1.5 1.8 19.8 27.3 25.2 35 2.2 3 8 11.7 13.1 19.2 5 7.5 9.5 13.4 9.9 13 .5-.4.5-.2.2.4-.4.6.6 2.9 2.1 5.1 1.5 2.1 3.2 4.8 3.8 5.8.6 1 1.6 2.1 2.2 2.3 1.8.6 15.8-13.6 20.6-20.8 4.8-7.3 7.4-12.7 10.3-21.5 3.5-10.3 4.2-12.9 4.9-17 .3-2.2.8-4.4 1.1-4.8.2-.4.6-3.1.8-6 .2-2.9.6-6.8.9-8.7 1.1-6.6 1.7-18.5 1.6-31.5-.1-15.7-.5-20.5-2.9-36-1.1-6.6-2.2-13.8-2.6-16-.3-2.3-.7-5-.9-6.2-2.5-12.9-2.3-34.3.4-44.5 2.6-9.7 9.4-22.1 15.5-28.2 1.3-1.3 2.1-2.7 1.7-3.1-.4-.4-.2-.5.4-.3.5.1 4.6-2.9 9-6.9 4.3-3.9 8.9-8 10.2-9.1 2.6-2.3 15.5-13.8 18.8-16.7 1.2-1.1 5.3-4.7 9-8 16.2-14 38.4-37.4 47.6-49.9 2.1-2.8 4.1-5.6 4.6-6.1.7-.9 4.3-6.4 10.4-16.1 3.6-5.6 10-18.7 12.8-25.9 1.2-3.3 2.6-6.9 3.1-8 2.5-6.3 5.2-17.1 7.4-30 1.4-7.5 1.2-35.7-.2-44-3.4-20.5-9.6-38-19.4-54.5-3.1-5.2-3.3-5.3-6.5-2.6z"/>
</svg>
