<?xml version="1.0" encoding="UTF-8" standalone="no"?>
<svg width="213px" height="129px" viewBox="0 0 213 129" version="1.1" xmlns="http://www.w3.org/2000/svg" xmlns:xlink="http://www.w3.org/1999/xlink">
    <!-- Generator: Sketch 41.2 (35397) - http://www.bohemiancoding.com/sketch -->
    <title>icon-backend</title>
    <desc>Created with Sketch.</desc>
    <defs>
        <linearGradient x1="100%" y1="50%" x2="0%" y2="50%" id="linearGradient-1">
            <stop stop-color="#FAE200" offset="0%"></stop>
            <stop stop-color="#FFFFFF" offset="100%"></stop>
        </linearGradient>
        <linearGradient x1="50%" y1="100%" x2="50%" y2="0%" id="linearGradient-2">
            <stop stop-color="#EEEEEE" offset="0%"></stop>
            <stop stop-color="#D8D8D8" offset="100%"></stop>
        </linearGradient>
    </defs>
    <g id="Page-1" stroke="none" stroke-width="1" fill="none" fill-rule="evenodd">
        <g id="TechStack-Desktop" transform="translate(-396.000000, -536.000000)">
            <g id="icon-backend" transform="translate(363.000000, 483.000000)">
                <path d="M21.7777345,132.93857 C45.6199714,155.732105 119.162073,198.402842 152.4593,177.307689 C189.380602,156.212535 251.678969,89.0168667 235.316048,66.2233315 C217.028131,43.4297962 165.557855,55.7360719 121.451212,76.8312251 C80.9686438,97.9263783 -3.98949927,110.145034 21.7777345,132.93857 Z" id="Oval-19" fill="url(#linearGradient-1)" transform="translate(127.500000, 118.500000) rotate(37.000000) translate(-127.500000, -118.500000) "></path>
                <g id="icon-mainframe" transform="translate(67.000000, 57.000000)">
                    <rect id="Rectangle-60" fill="url(#linearGradient-2)" x="33" y="21" width="56" height="78"></rect>
                    <g id="server" transform="translate(20.000000, 0.000000)">
                        <rect id="Rectangle-59" fill="#201D1D" x="0" y="0" width="82" height="29"></rect>
                        <g id="lights" transform="translate(54.932039, 4.027778)">
                            <rect id="Rectangle-7-Copy" fill="#88C41A" x="16.1048152" y="0.183080808" width="5.97087379" height="6.15444434" rx="2.11199983"></rect>
                            <rect id="Rectangle-7-Copy-8" fill="#F8E008" x="8.14365019" y="0.183080808" width="5.97087379" height="6.15444434" rx="2.11199983"></rect>
                            <rect id="Rectangle-7-Copy-9" fill="#F8E008" x="0.182485143" y="0.183080808" width="5.97087379" height="6.15444434" rx="2.11199983"></rect>
                        </g>
                    </g>
                    <g id="server-copy" transform="translate(20.000000, 32.000000)">
                        <rect id="Rectangle-59" fill="#201D1D" x="0" y="0" width="82" height="29"></rect>
                        <g id="lights" transform="translate(54.932039, 4.027778)">
                            <rect id="Rectangle-7-Copy" fill="#F73A14" x="16.1048152" y="0.183080808" width="5.97087379" height="6.15444434" rx="2.11199983"></rect>
                            <rect id="Rectangle-7-Copy-8" fill="#88C41A" x="8.14365019" y="0.183080808" width="5.97087379" height="6.15444434" rx="2.11199983"></rect>
                            <rect id="Rectangle-7-Copy-9" fill="#88C41A" x="0.182485143" y="0.183080808" width="5.97087379" height="6.15444434" rx="2.11199983"></rect>
                        </g>
                    </g>
                    <g id="server-copy-2" transform="translate(20.000000, 64.000000)">
                        <rect id="Rectangle-59" fill="#201D1D" x="0" y="0" width="82" height="29"></rect>
                        <g id="lights" transform="translate(54.932039, 4.027778)">
                            <rect id="Rectangle-7-Copy" fill="#88C41A" x="16.1048152" y="0.183080808" width="5.97087379" height="6.15444434" rx="2.11199983"></rect>
                            <rect id="Rectangle-7-Copy-8" fill="#88C41A" x="8.14365019" y="0.183080808" width="5.97087379" height="6.15444434" rx="2.11199983"></rect>
                            <rect id="Rectangle-7-Copy-9" fill="#F73A14" x="0.182485143" y="0.183080808" width="5.97087379" height="6.15444434" rx="2.11199983"></rect>
                        </g>
                    </g>
                </g>
            </g>
        </g>
    </g>
</svg>